# xmcd
#
# Track frame offsets:
#	150
#	23495
#	35160
#	54887
#	70652
#	87932
#	104797
#	122022
#	140087
#	155522
#	169145
#	175917
#	194042
#
# Disc length: 2740 seconds
#
# Revision: 0
# Processed by: cddbd v1.5.1PL2 Copyright (c) Steve Scherf et al.
# Submitted via: EasyCDDAExtractor 9.1.2.1
#
DISCID=b70ab20d
DTITLE=Ernest Tubb - New Years Eve Live 1979
DYEAR=1979
DGENRE=Country
TTITLE0=Thanks A Lot
TTITLE1=Half A Mind
TTITLE2=In The Jailhouse Now
TTITLE3=Waltz Across Texas
TTITLE4=Sometimes I Do
TTITLE5=Rainbow At Midnight
TTITLE6=Filipino Baby
TTITLE7=Answer The Phone
TTITLE8=I Love You Because
TTITLE9=There's A Little Bit of Everything In Texas
TTITLE10=Fraulein
TTITLE11=Walking The Floor Over You (Partial) - Midnight Countdown
TTITLE12=Auld Lang Syne (Troubadours and Cast with Larry Scott)
EXTD=
EXTT0=
EXTT1=
EXTT2=
EXTT3=
EXTT4=
EXTT5=
EXTT6=
EXTT7=
EXTT8=
EXTT9=
EXTT10=
EXTT11=
EXTT12=
PLAYORDER=
